<svg cache-id="921bea11428e4279a7f1777cb6e532a6" id="e80QRu9XFPp1" xmlns="http://www.w3.org/2000/svg" xmlns:xlink="http://www.w3.org/1999/xlink" viewBox="0 0 2000 2000" shape-rendering="geometricPrecision" text-rendering="geometricPrecision"><style><![CDATA[#e80QRu9XFPp6_tr {animation: e80QRu9XFPp6_tr__tr 3000ms linear infinite normal forwards}@keyframes e80QRu9XFPp6_tr__tr { 0% {transform: translate(1000px,1000px) rotate(0deg)} 100% {transform: translate(1000px,1000px) rotate(360deg)}}]]></style><g id="e80QRu9XFPp2"><circle id="e80QRu9XFPp3" r="1000" transform="matrix(1 0 0 1 1000 1000)" fill="rgb(217,255,255)" stroke="none" stroke-width="1"/><g id="e80QRu9XFPp4"><path id="e80QRu9XFPp5" d="M1000,30C1065.83,30,1131.62,36.63,1195.52,49.71C1257.79,62.45,1319.03,81.46,1377.56,106.22C1435.03,130.53,1490.46,160.62,1542.32,195.65C1593.69,230.35,1642,270.21,1685.9,314.11C1729.8,358.01,1769.66,406.32,1804.36,457.69C1839.39,509.54,1869.48,564.98,1893.79,622.45C1918.54,680.98,1937.56,742.22,1950.3,804.49C1963.37,868.38,1970,934.17,1970,1000C1970,1065.83,1963.37,1131.62,1950.29,1195.52C1937.55,1257.79,1918.54,1319.03,1893.78,1377.56C1869.47,1435.03,1839.38,1490.46,1804.35,1542.32C1769.65,1593.69,1729.79,1642,1685.89,1685.9C1641.99,1729.8,1593.68,1769.66,1542.31,1804.36C1490.46,1839.39,1435.02,1869.48,1377.55,1893.79C1319.02,1918.54,1257.78,1937.56,1195.51,1950.3C1131.6,1963.38,1065.82,1970.01,999.99,1970.01C934.16,1970.01,868.37,1963.38,804.47,1950.3C742.2,1937.56,680.96,1918.55,622.43,1893.79C564.96,1869.48,509.53,1839.39,457.67,1804.36C406.3,1769.66,357.99,1729.8,314.09,1685.9C270.19,1642,230.33,1593.69,195.63,1542.32C160.6,1490.47,130.51,1435.03,106.2,1377.56C81.45,1319.03,62.43,1257.79,49.69,1195.52C36.63,1131.62,30,1065.83,30,1000C30,934.17,36.63,868.38,49.71,804.48C62.45,742.21,81.46,680.97,106.22,622.44C130.53,564.97,160.62,509.54,195.65,457.68C230.35,406.31,270.21,358,314.11,314.1C358.01,270.2,406.32,230.34,457.69,195.64C509.54,160.61,564.98,130.52,622.45,106.21C680.98,81.46,742.22,62.44,804.49,49.7C868.38,36.63,934.17,30,1000,30M1000,0C447.72,0,0,447.72,0,1000C0,1552.28,447.72,2000,1000,2000C1552.28,2000,2000,1552.28,2000,1000C2000,447.72,1552.28,0,1000,0L1000,0Z" fill="rgb(0,0,0)" stroke="none" stroke-width="1"/></g></g><g id="e80QRu9XFPp6_tr" transform="translate(1000,1000) rotate(0)"><g id="e80QRu9XFPp6" transform="translate(-1000,-1000)"><g id="e80QRu9XFPp7"><path id="e80QRu9XFPp8" d="M1000.5,556C1060.52,556,1118.73,567.75,1173.51,590.92C1226.44,613.31,1273.98,645.36,1314.81,686.19C1355.64,727.02,1387.69,774.56,1410.08,827.49C1433.25,882.28,1445,940.49,1445,1000.5C1445,1060.51,1433.25,1118.73,1410.08,1173.51C1387.69,1226.44,1355.64,1273.98,1314.81,1314.81C1273.98,1355.64,1226.44,1387.69,1173.51,1410.08C1118.72,1433.25,1060.51,1445,1000.5,1445C940.49,1445,882.27,1433.25,827.49,1410.08C774.56,1387.69,727.02,1355.64,686.19,1314.81C645.36,1273.98,613.31,1226.44,590.92,1173.51C567.75,1118.72,556,1060.51,556,1000.5C556,940.49,567.75,882.27,590.92,827.49C613.31,774.56,645.36,727.02,686.19,686.19C727.02,645.36,774.56,613.31,827.49,590.92C882.27,567.75,940.48,556,1000.5,556M1000.5,536C743.96,536,536,743.96,536,1000.5C536,1257.04,743.96,1465,1000.5,1465C1257.04,1465,1465,1257.04,1465,1000.5C1465,743.96,1257.04,536,1000.5,536L1000.5,536Z" fill="rgb(27,20,100)" stroke="none" stroke-width="1"/></g><line id="e80QRu9XFPp9" x1="999" y1="542" x2="999" y2="305" fill="none" stroke="rgb(27,20,100)" stroke-width="20" stroke-miterlimit="10"/><path id="e80QRu9XFPp10" d="M397.38,1349.75L602.63,1231.25L397.38,1349.75Z" fill="none" stroke="rgb(27,20,100)" stroke-width="20" stroke-miterlimit="10"/><path id="e80QRu9XFPp11" d="M1594.62,1346.75L1389.37,1228.25L1594.62,1346.75Z" fill="none" stroke="rgb(27,20,100)" stroke-width="20" stroke-miterlimit="10"/><circle id="e80QRu9XFPp12" r="120.5" transform="matrix(1 0 0 1 999.5 184.5)" fill="none" stroke="rgb(27,20,100)" stroke-width="20" stroke-miterlimit="10"/><circle id="e80QRu9XFPp13" r="120.5" transform="matrix(1 0 0 1 297.5 1410.5)" fill="none" stroke="rgb(27,20,100)" stroke-width="20" stroke-miterlimit="10"/><circle id="e80QRu9XFPp14" r="120.5" transform="matrix(1 0 0 1 1700.5 1406.5)" fill="none" stroke="rgb(27,20,100)" stroke-width="20" stroke-miterlimit="10"/></g></g><g id="e80QRu9XFPp15"><g id="e80QRu9XFPp16"><path id="e80QRu9XFPp17" d="M843.1,1211.09C843.1,1221.5,839.86,1229.99,833.39,1236.57C826.91,1243.15,818.47,1246.44,808.07,1246.44L682.57,1246.44C672.16,1246.44,663.62,1243.15,656.93,1236.57C650.24,1229.99,646.9,1221.5,646.9,1211.09L646.9,1084.65L691.17,1084.65L691.17,1207.27L798.82,1207.27L798.82,1088.47L661.23,922.21C651.68,910.74,646.9,898.11,646.9,884.31L646.9,783.34C646.9,772.94,650.24,764.44,656.93,757.86C663.62,751.28,672.16,747.99,682.57,747.99L808.06,747.99C818.46,747.99,826.9,751.28,833.38,757.86C839.85,764.44,843.09,772.94,843.09,783.34L843.09,899.27L798.82,899.27L798.82,787.16L691.17,787.16L691.17,892.26L829.4,1058.52C838.53,1069.56,843.1,1081.98,843.1,1095.78L843.1,1211.09Z" fill="rgb(27,20,100)" stroke="none" stroke-width="1"/><path id="e80QRu9XFPp18" d="M1085.16,1246.44L921.45,1246.44L921.45,747.99L1083.25,747.99L1083.25,787.17L965.72,787.17L965.72,973.17L1072.74,973.17L1072.74,1012.98L965.72,1012.98L965.72,1207.27L1085.16,1207.27L1085.16,1246.44Z" fill="rgb(27,20,100)" stroke="none" stroke-width="1"/><path id="e80QRu9XFPp19" d="M1351.74,1012.98C1351.74,1023.39,1348.4,1031.93,1341.71,1038.62C1335.02,1045.31,1326.47,1048.65,1316.07,1048.65L1198.54,1048.65L1198.54,1246.44L1154.27,1246.44L1154.27,747.99L1316.07,747.99C1326.47,747.99,1335.02,751.28,1341.71,757.86C1348.4,764.44,1351.74,772.94,1351.74,783.34L1351.74,1012.98ZM1307.47,1009.16L1307.47,787.16L1198.54,787.16L1198.54,1009.16L1307.47,1009.16Z" fill="rgb(27,20,100)" stroke="none" stroke-width="1"/></g></g></svg>