<?xml version="1.0" encoding="utf-8"?>
<!-- Generator: Adobe Illustrator 24.1.1, SVG Export Plug-In . SVG Version: 6.00 Build 0)  -->
<svg version="1.1" xmlns="http://www.w3.org/2000/svg" xmlns:xlink="http://www.w3.org/1999/xlink" x="0px" y="0px"
	 viewBox="0 0 2000 2000" style="enable-background:new 0 0 2000 2000;" xml:space="preserve">
<style type="text/css">
	.st0{fill:#D9FFFF;}
	.st1{fill:#1B1464;}
	.st2{fill:none;stroke:#1B1464;stroke-width:20;stroke-miterlimit:10;}
</style>
<g id="Layer_1">
	<circle class="st0" cx="1000" cy="1000" r="1000"/>
	<g>
		<path d="M1000,30c65.83,0,131.62,6.63,195.52,19.71c62.27,12.74,123.51,31.75,182.04,56.51c57.47,24.31,112.9,54.4,164.76,89.43
			c51.37,34.7,99.68,74.56,143.58,118.46c43.9,43.9,83.76,92.21,118.46,143.58c35.03,51.85,65.12,107.29,89.43,164.76
			c24.75,58.53,43.77,119.77,56.51,182.04C1963.37,868.38,1970,934.17,1970,1000s-6.63,131.62-19.71,195.52
			c-12.74,62.27-31.75,123.51-56.51,182.04c-24.31,57.47-54.4,112.9-89.43,164.76c-34.7,51.37-74.56,99.68-118.46,143.58
			c-43.9,43.9-92.21,83.76-143.58,118.46c-51.85,35.03-107.29,65.12-164.76,89.43c-58.53,24.75-119.77,43.77-182.04,56.51
			c-63.91,13.08-129.69,19.71-195.52,19.71s-131.62-6.63-195.52-19.71c-62.27-12.74-123.51-31.75-182.04-56.51
			c-57.47-24.31-112.9-54.4-164.76-89.43c-51.37-34.7-99.68-74.56-143.58-118.46c-43.9-43.9-83.76-92.21-118.46-143.58
			c-35.03-51.85-65.12-107.29-89.43-164.76c-24.75-58.53-43.77-119.77-56.51-182.04C36.63,1131.62,30,1065.83,30,1000
			s6.63-131.62,19.71-195.52c12.74-62.27,31.75-123.51,56.51-182.04c24.31-57.47,54.4-112.9,89.43-164.76
			c34.7-51.37,74.56-99.68,118.46-143.58c43.9-43.9,92.21-83.76,143.58-118.46c51.85-35.03,107.29-65.12,164.76-89.43
			c58.53-24.75,119.77-43.77,182.04-56.51C868.38,36.63,934.17,30,1000,30 M1000,0C447.72,0,0,447.72,0,1000s447.72,1000,1000,1000
			s1000-447.72,1000-1000S1552.28,0,1000,0L1000,0z"/>
	</g>
</g>
<g id="Layer_3">
	<g>
		<path class="st1" d="M1000.5,556c60.02,0,118.23,11.75,173.01,34.92c52.93,22.39,100.47,54.44,141.3,95.27
			s72.88,88.37,95.27,141.3c23.17,54.79,34.92,113,34.92,173.01s-11.75,118.23-34.92,173.01c-22.39,52.93-54.44,100.47-95.27,141.3
			s-88.37,72.88-141.3,95.27c-54.79,23.17-113,34.92-173.01,34.92s-118.23-11.75-173.01-34.92
			c-52.93-22.39-100.47-54.44-141.3-95.27s-72.88-88.37-95.27-141.3c-23.17-54.79-34.92-113-34.92-173.01s11.75-118.23,34.92-173.01
			c22.39-52.93,54.44-100.47,95.27-141.3s88.37-72.88,141.3-95.27C882.27,567.75,940.48,556,1000.5,556 M1000.5,536
			C743.96,536,536,743.96,536,1000.5S743.96,1465,1000.5,1465s464.5-207.96,464.5-464.5S1257.04,536,1000.5,536L1000.5,536z"/>
	</g>
	<line class="st2" x1="999" y1="542" x2="999" y2="305"/>
	<path class="st2" d="M397.38,1349.75l205.25-118.5L397.38,1349.75z"/>
	<path class="st2" d="M1594.62,1346.75l-205.25-118.5L1594.62,1346.75z"/>
	<circle class="st2" cx="999.5" cy="184.5" r="120.5"/>
	<circle class="st2" cx="297.5" cy="1410.5" r="120.5"/>
	<circle class="st2" cx="1700.5" cy="1406.5" r="120.5"/>
</g>
<g id="Layer_2">
	<g>
		<path class="st1" d="M843.1,1211.09c0,10.41-3.24,18.9-9.71,25.48c-6.48,6.58-14.92,9.87-25.32,9.87H682.57
			c-10.41,0-18.95-3.29-25.64-9.87c-6.69-6.58-10.03-15.07-10.03-25.48v-126.44h44.27v122.62h107.65v-118.8L661.23,922.21
			c-9.55-11.47-14.33-24.1-14.33-37.9V783.34c0-10.4,3.34-18.9,10.03-25.48c6.69-6.58,15.23-9.87,25.64-9.87h125.49
			c10.4,0,18.84,3.29,25.32,9.87c6.47,6.58,9.71,15.08,9.71,25.48v115.93h-44.27V787.16H691.17v105.1l138.23,166.26
			c9.13,11.04,13.7,23.46,13.7,37.26V1211.09z"/>
		<path class="st1" d="M1085.16,1246.44H921.45V747.99h161.8v39.18H965.72v186h107.02v39.81H965.72v194.29h119.44V1246.44z"/>
		<path class="st1" d="M1351.74,1012.98c0,10.41-3.34,18.95-10.03,25.64s-15.24,10.03-25.64,10.03h-117.53v197.79h-44.27V747.99
			h161.8c10.4,0,18.95,3.29,25.64,9.87c6.69,6.58,10.03,15.08,10.03,25.48V1012.98z M1307.47,1009.16v-222h-108.93v222H1307.47z"/>
	</g>
</g>
</svg>
